<svg width="209" height="43" viewBox="0 0 209 43" fill="none" xmlns="http://www.w3.org/2000/svg">
<path d="M31.2571 18.8052C30.7829 18.0544 30.3483 17.3826 29.9926 16.7108C29.9136 16.5528 30.0717 16.1576 30.2297 15.9995C31.5337 14.7746 33.1144 13.9052 34.7741 13.3125C37.224 12.4431 39.7531 12.1665 42.2821 12.6407C46.7474 13.4705 50.1853 15.7625 51.6474 20.3068C52.7933 23.8237 52.5562 27.3011 50.5014 30.4624C48.8022 33.0705 46.2732 34.414 43.3095 35.0462C41.5708 35.4019 39.7926 35.6785 37.9748 35.5204C35.92 35.3624 34.1418 34.5325 32.6007 33.189C30.8225 31.6479 29.9531 29.5535 28.9652 27.5382C26.8709 23.31 24.816 19.0818 22.6822 14.8536C22.287 14.0238 21.6943 13.352 20.6273 13.352C20.1531 13.352 19.916 13.5496 19.916 14.0238C19.916 14.2213 19.916 14.4189 19.916 14.6165C19.916 21.4132 19.916 28.1705 19.916 34.9672C19.916 35.2438 19.758 35.4809 19.6394 35.7575C19.3233 35.639 18.8886 35.5995 18.6911 35.3624C17.0314 33.268 15.4112 31.1342 13.7911 29.0003C12.329 27.1431 10.9064 25.2463 9.44432 23.389C7.62658 21.0181 5.80885 18.6076 3.99111 16.2366C3.7145 15.8415 3.39837 15.4858 3.00321 14.9721C3.00321 15.3278 2.92418 15.5649 2.92418 15.7625C2.92418 21.6898 2.92418 27.6172 2.92418 33.5446C2.92418 34.5325 3.16128 34.7696 4.10966 34.9277C4.4653 34.9672 4.78143 35.0858 5.13708 35.1648C5.13708 35.2438 5.13708 35.3229 5.13708 35.4019C4.9395 35.4414 4.74191 35.56 4.50482 35.56C3.20079 35.56 1.85725 35.56 0.553221 35.56C0.355641 35.56 0.19758 35.4019 0 35.3229C0.158064 35.2043 0.316127 35.0463 0.474191 35.0067C2.01531 34.6906 2.17338 34.5325 2.17338 32.9519C2.17338 26.9455 2.17338 20.939 2.17338 14.8931C2.17338 14.735 2.17338 14.577 2.17338 14.4189C2.09435 13.51 1.81773 13.2334 0.908866 13.0359C0.592738 12.9963 0.316127 12.7988 0.0395154 12.6407C0.355643 12.5617 0.671769 12.4036 0.948381 12.4036C2.01531 12.4036 3.08225 12.3641 4.18869 12.4036C4.50482 12.4036 4.93949 12.6012 5.09756 12.8383C7.54755 15.9995 9.95802 19.1608 12.408 22.3221C14.4628 24.9697 16.4782 27.6568 18.533 30.3043C18.6515 30.4229 18.7701 30.5414 19.0072 30.7785C19.0072 30.4229 19.0862 30.2253 19.0862 29.9882C19.0862 24.9302 19.0862 19.8326 19.0862 14.7746C19.0862 14.4979 19.0862 14.2608 19.0467 13.9842C18.9677 13.431 18.6515 13.1149 18.0983 13.0359C17.9403 13.0359 17.7822 13.0358 17.6636 12.9568C17.4661 12.8778 17.2685 12.7197 17.0709 12.6012C17.308 12.5221 17.5056 12.3641 17.7427 12.3641C19.758 12.3641 21.7733 12.3641 23.7886 12.3641C24.3418 12.3641 24.6185 12.5617 24.8555 13.0359C26.8709 17.106 28.8467 21.1761 30.9015 25.2463C32.2845 27.9334 33.9837 30.4229 36.2757 32.4382C37.7378 33.7422 39.3974 34.7696 41.4127 34.7696C43.6256 34.7696 45.3248 33.6632 46.6288 32.043C48.7627 29.3955 49.1974 26.2342 48.9208 22.9939C48.8417 21.9269 48.6837 20.86 48.4071 19.8326C47.4982 16.5528 45.4829 14.2608 42.124 13.3915C39.516 12.7197 37.1845 13.51 35.0112 14.8536C33.6676 15.7229 32.5612 16.8294 31.6918 18.1729C31.5733 18.3705 31.4152 18.5286 31.2176 18.8052H31.2571Z" fill="white"/>
<path d="M160.751 14.4189C160.751 14.656 160.711 14.9326 160.711 15.1697C160.711 21.0181 160.711 26.8269 160.711 32.6753C160.711 32.9124 160.711 33.1495 160.711 33.3866C160.791 33.9793 161.028 34.493 161.699 34.6116C161.897 34.6116 162.095 34.7696 162.292 34.9277H158.617C158.617 34.8882 158.657 34.8486 158.696 34.8486C159.75 34.5062 160.277 33.7817 160.277 32.6753C160.277 26.5108 160.277 20.3463 160.277 14.1818C160.277 12.9173 160.158 12.7592 158.933 12.5221C158.854 12.5221 158.775 12.4826 158.696 12.3245C158.933 12.3245 159.17 12.2455 159.407 12.2455C160.119 12.2455 160.87 12.3245 161.581 12.2455C162.411 12.1665 162.806 12.4826 163.122 13.1939C165.453 17.9753 167.824 22.7172 170.195 27.4592C170.907 28.8817 171.578 30.3043 172.29 31.6874C172.369 31.8454 172.487 32.0035 172.685 32.3196C172.922 31.9245 173.119 31.6479 173.238 31.3317C176.241 25.2067 179.244 19.0818 182.248 12.9568C182.524 12.3641 182.88 12.1665 183.512 12.206C184.5 12.2455 185.448 12.206 186.476 12.206C186.397 12.3641 186.397 12.4431 186.397 12.4431C185.053 12.8778 184.895 13.1149 184.895 14.4979C184.895 20.3463 184.895 26.2342 184.895 32.0825C184.895 33.347 184.777 34.6511 186.515 34.9277H180.667C180.707 34.8486 180.746 34.8091 180.786 34.7696C182.287 34.1769 182.327 34.1374 182.327 32.5172C182.327 26.7084 182.327 20.939 182.327 15.1302C182.327 14.8931 182.327 14.6165 182.327 14.3794C182.287 14.3794 182.208 14.3399 182.169 14.3003C182.05 14.4584 181.892 14.6165 181.773 14.814C178.81 20.781 175.886 26.7874 172.961 32.7543C172.685 33.3075 172.448 33.8608 172.132 34.414C171.974 34.6906 171.697 34.8882 171.46 35.1253C171.223 34.8882 170.946 34.6511 170.788 34.3745C169.524 31.885 168.338 29.3954 167.074 26.8664C165.098 22.8753 163.161 18.8842 161.186 14.8536C161.067 14.656 160.988 14.4584 160.87 14.2608C160.83 14.2608 160.751 14.2608 160.711 14.3003L160.751 14.4189Z" fill="white"/>
<path d="M149.252 24.4955C149.924 25.6415 150.556 26.6689 151.188 27.7358C152.295 29.593 153.401 31.4108 154.507 33.268C154.942 33.9793 155.456 34.5721 156.365 34.6511C156.444 34.6511 156.523 34.7301 156.602 34.9277H150.437C150.437 34.9277 150.437 34.8487 150.437 34.8092C150.595 34.7301 150.793 34.6906 150.951 34.6116C151.741 34.414 151.939 34.0188 151.544 33.3076C151.149 32.5567 150.674 31.8059 150.24 31.0947C149.015 29.0793 147.829 27.064 146.604 25.0882C146.446 24.8511 146.091 24.614 145.774 24.5745C144.589 24.535 143.403 24.5745 142.218 24.5745C141.783 24.5745 141.625 24.7721 141.665 25.1673C141.665 27.8543 141.665 30.5019 141.665 33.189C141.665 34.2559 141.823 34.3745 142.89 34.6116C143.087 34.6116 143.245 34.7301 143.403 34.9277H137.239C137.239 34.8882 137.239 34.8487 137.239 34.8092C137.476 34.7301 137.713 34.6511 137.95 34.6116C138.662 34.4535 138.978 34.1374 139.017 33.3866C139.017 33.1495 139.017 32.9519 139.017 32.7148C139.017 26.6294 139.017 20.5439 139.017 14.4979C139.017 13.0359 138.938 12.9173 137.634 12.2851C137.832 12.2851 138.069 12.206 138.266 12.206C141.151 12.206 143.996 12.127 146.881 12.206C148.817 12.2851 150.714 12.4826 152.413 13.5891C154.389 14.9326 155.061 16.8689 154.824 19.1213C154.626 21.2157 153.48 22.7173 151.583 23.5866C150.872 23.9027 150.121 24.1003 149.252 24.4165V24.4955ZM141.665 18.3705C141.665 20.0697 141.665 21.8084 141.665 23.5076C141.665 23.9818 141.823 24.2189 142.337 24.2189C143.878 24.2189 145.458 24.2979 146.999 24.1794C147.948 24.1003 148.975 23.7842 149.766 23.2705C151.978 21.8479 152.769 18.8842 151.781 16.2367C150.872 13.7867 148.857 12.7592 146.486 12.6012C145.142 12.5222 143.799 12.6012 142.495 12.6012C141.862 12.6012 141.625 12.7988 141.665 13.431C141.665 15.0907 141.665 16.7504 141.665 18.41V18.3705Z" fill="white"/>
<path d="M75.9892 28.0124C74.6852 28.0124 73.3416 28.0124 72.0376 28.0124C71.5239 28.0124 71.2473 28.1705 71.0497 28.6842C70.4965 30.1463 69.8642 31.6084 69.311 33.0705C69.232 33.3076 69.1134 33.5051 69.1134 33.7422C68.9949 34.4535 69.232 34.6906 69.9037 34.8092C70.2594 34.8487 70.7731 34.6511 70.8126 35.2438C70.8126 35.2834 70.1804 35.4414 69.8642 35.4809C68.7973 35.4809 67.7304 35.4809 66.6239 35.4809C66.4658 35.4809 66.3078 35.3229 66.1497 35.2438C66.3078 35.1253 66.4263 34.8882 66.5844 34.8487C67.6513 34.8487 68.1255 34.1374 68.4416 33.268C71.1682 26.4713 73.8553 19.635 76.5819 12.8383C76.7005 12.5617 76.9771 12.3641 77.2142 12.0875C77.4513 12.3246 77.7279 12.5222 77.8464 12.7988C80.2964 18.9238 82.7069 25.0882 85.1569 31.2132C85.473 32.0035 85.7496 32.7543 86.1053 33.5447C86.4214 34.256 86.8561 34.7697 87.7254 34.8092C87.923 34.8092 88.0811 35.0463 88.2787 35.1648C88.0811 35.2834 87.923 35.4414 87.7254 35.4414C85.7101 35.4414 83.6948 35.4414 81.6795 35.4414C81.4819 35.4414 81.2843 35.2834 81.0868 35.1648C81.2843 35.0463 81.4424 34.8487 81.64 34.8092C82.9835 34.5721 83.1811 34.256 82.6674 32.9914C82.0747 31.4898 81.4819 30.0277 80.8892 28.5261C80.7311 28.0915 80.494 27.9729 80.0593 27.9729C78.7158 27.9729 77.3327 27.9729 75.9892 27.9729V28.0124ZM76.0287 16.3552C75.8707 16.6318 75.7916 16.7504 75.7126 16.8689C74.4086 20.1487 73.1045 23.4286 71.8005 26.7084C71.5634 27.3011 71.84 27.3802 72.3537 27.3802C74.7642 27.3802 77.1747 27.3802 79.5852 27.3802C80.3755 27.3802 80.415 27.3011 80.1384 26.5898C79.3876 24.6931 78.5972 22.7568 77.8464 20.86C77.2537 19.3979 76.661 17.9359 76.0287 16.3552Z" fill="white"/>
<path d="M63.4231 31.3713C64.0158 29.8301 64.6481 28.289 65.2408 26.7084C66.8215 22.7568 68.4021 18.8052 69.9432 14.8536C70.0618 14.577 70.1408 14.3004 70.1803 14.0238C70.2594 13.4705 70.0618 13.1149 69.4295 13.0359C69.0739 13.0359 68.7577 12.8778 68.4021 12.7988C68.4021 12.7197 68.4021 12.6407 68.4021 12.5617C68.5997 12.4826 68.7577 12.4036 68.9553 12.3641C70.1803 12.3641 71.3658 12.3641 72.5908 12.3641C72.7489 12.3641 72.9069 12.5221 73.065 12.6012C72.9069 12.7197 72.7884 12.9568 72.6303 12.9568C71.5634 12.9963 71.1287 13.7471 70.8126 14.577C68.1255 21.3737 65.3989 28.21 62.6723 35.0067C62.5537 35.2833 62.2771 35.4809 62.0795 35.6785C61.882 35.4414 61.6054 35.2833 61.4868 35.0067C58.7207 28.131 55.9941 21.2947 53.2675 14.4189C52.9514 13.6286 52.5167 13.0358 51.5683 12.9568C51.3707 12.9568 51.2127 12.7197 51.0151 12.6012C51.2127 12.5221 51.4102 12.3641 51.6078 12.3641C53.5836 12.3641 55.5594 12.3641 57.5352 12.3641C57.7328 12.3641 57.9304 12.5221 58.128 12.6012C57.9304 12.7197 57.7723 12.8383 57.5747 12.9568C57.4562 12.9963 57.2981 12.9963 57.1796 12.9963C56.5473 12.9963 56.3102 13.352 56.3893 13.9447C56.3893 14.2213 56.5078 14.4584 56.5868 14.6955C58.7207 20.0302 60.815 25.3648 62.9489 30.6995C63.0279 30.8971 63.1465 31.0946 63.2255 31.2922C63.3045 31.2922 63.3441 31.2922 63.4231 31.2922V31.3713Z" fill="white"/>
<path d="M94.1666 12.2851C94.4037 12.2851 94.6408 12.2456 94.8779 12.2456C99.4222 12.2456 104.006 12.2456 108.55 12.2456C109.183 12.2456 109.499 12.3246 109.578 13.0754C109.775 14.7351 110.131 16.3947 110.408 18.0544C110.408 18.2125 110.408 18.4101 110.408 18.6076C110.329 18.6076 110.289 18.6076 110.21 18.6076C110.092 18.0544 109.933 17.5407 109.775 16.9875C109.183 14.7746 107.997 13.1149 105.073 12.7988C102.979 12.6012 100.845 12.6012 98.7109 12.5222C98.1577 12.5222 98.1577 12.8778 98.1577 13.273C98.1577 15.5254 98.1577 17.7383 98.1577 19.9907C98.1577 22.2431 98.1577 21.9665 98.1577 22.9544C98.1577 23.5076 98.3158 23.7447 98.9085 23.7447C100.252 23.7447 101.635 23.7447 102.979 23.7447C103.611 23.7447 104.283 23.6262 104.915 23.4286C106.061 23.1125 106.496 22.2036 106.772 21.1367V26.6294C106.575 26.1157 106.417 25.7205 106.258 25.3649C105.942 24.6536 105.31 24.2584 104.599 24.2189C102.623 24.1004 100.608 24.0608 98.6319 24.0608C98.4738 24.0608 98.1577 24.4165 98.1577 24.5746C98.1577 27.5778 98.1577 30.581 98.1577 33.5842C98.1577 34.1769 98.5133 34.4931 99.0666 34.6116C99.3432 34.6511 99.6198 34.7302 99.8569 34.9277H93.7714C93.7714 34.9277 93.7714 34.8487 93.8504 34.8487C94.9306 34.4272 95.4706 33.6369 95.4706 32.4777C95.4706 26.5108 95.4706 20.5439 95.4706 14.577C95.4706 13.0754 95.3916 12.9569 94.048 12.2851H94.1666Z" fill="white"/>
<path d="M209 34.9277H202.915C202.915 34.8882 202.915 34.8487 202.875 34.8092C203.073 34.7301 203.231 34.6511 203.428 34.6116C204.219 34.414 204.456 34.1374 204.219 33.3471C203.942 32.3197 203.547 31.3713 203.191 30.3834C202.915 29.6326 202.598 28.9213 202.361 28.1705C202.203 27.6963 201.927 27.5382 201.413 27.5382C198.844 27.5382 196.276 27.5382 193.707 27.5382C193.233 27.5382 192.996 27.6963 192.838 28.131C192.206 29.8302 191.573 31.4898 190.981 33.189C190.704 34.0189 190.941 34.414 191.771 34.6116C191.969 34.6511 192.127 34.7301 192.285 34.9277H188.61C188.689 34.8092 188.728 34.7301 188.768 34.7301C189.914 34.5721 190.348 33.7818 190.704 32.8334C193.233 26.0761 195.762 19.3189 198.291 12.5617C198.37 12.3641 198.568 12.206 198.726 12.048C198.884 12.2456 199.161 12.4036 199.24 12.6407C201.176 17.7778 203.073 22.9149 205.009 28.0519C205.602 29.6721 206.234 31.2527 206.827 32.8729C207.143 33.7818 207.538 34.6511 208.684 34.7697C208.763 34.7697 208.802 34.8487 209 35.0068V34.9277ZM197.619 15.723C197.461 16.0391 197.343 16.1971 197.264 16.3552C195.999 19.7141 194.735 23.0729 193.47 26.4713C193.194 27.1826 193.312 27.3406 194.063 27.3406C196.394 27.3406 198.765 27.3406 201.097 27.3406C201.927 27.3406 202.006 27.2616 201.69 26.4713C200.425 23.152 199.2 19.8721 197.936 16.5528C197.856 16.3157 197.738 16.1181 197.54 15.723H197.619Z" fill="white"/>
<path d="M131.983 19.2004C131.983 19.2004 130.758 13.9447 125.898 12.8778C121.037 11.8109 117.086 15.0117 116.216 18.4101C115.347 21.8084 114.557 27.1036 117.441 31.5689C117.441 31.5689 119.299 34.7301 123.29 35.0858C127.281 35.4414 130.877 32.4382 131.983 28.1705L133.366 30.6995C133.366 30.6995 130.205 36.2713 121.867 35.3624C113.529 34.4535 111.475 25.602 112.66 21.2552C113.846 16.9084 118.983 9.51896 128.862 13.1939C128.862 13.1939 131.154 14.1818 133.366 16.9875L131.983 19.2004Z" fill="#ffff"/>
<path d="M132.023 18.5681C130.877 15.6044 129.099 13.352 126.016 12.3246C126.807 12.5617 127.558 12.7988 128.348 13.0359C128.585 13.1149 128.822 13.0359 129.059 13.0359C128.941 12.8383 128.901 12.6012 128.743 12.4431C126.372 10.5859 124.001 8.68912 121.235 7.34558C118.746 6.12059 116.217 5.01414 113.529 4.38188C110.921 3.74963 108.313 3.15688 105.587 3.11737C104.757 3.11737 103.927 2.84075 103.097 2.91979C100.726 3.07785 98.3553 3.31495 95.9843 3.59156C95.5101 3.63108 95.3126 3.55204 95.1545 3.11737C94.7593 2.12947 94.3247 1.18108 93.8505 0.11415C94.2061 0.11415 94.4432 0.0351253 94.6408 0.0351253C96.6956 0.0351253 98.7109 -0.0439066 100.766 0.0351253C102.346 0.114157 103.888 0.311732 105.468 0.548828C109.222 1.10205 112.818 2.16898 116.296 3.63107C119.694 5.05365 122.816 6.95042 125.7 9.24234C128.19 11.2181 130.324 13.5101 132.458 15.8415C133.287 16.7504 133.09 17.6197 131.983 18.4891L132.023 18.5681Z" fill="#ffff"/>
<path d="M132.853 26.8665C132.062 25.2463 130.956 24.1794 129.296 23.4286C130.956 22.7173 132.102 21.6899 132.853 20.0697C133.604 21.6109 134.433 22.7963 136.133 23.31C134.749 24.2584 133.485 25.1278 132.853 26.827V26.8665Z" fill="#ffff"/>
<path d="M129.375 39.5116V42.2777C129.138 42.7124 119.812 39.7882 113.925 29.7906C113.925 29.7906 122.618 39.393 129.375 39.5116Z" fill="#ffff"/>
<path d="M131.983 19.2004C131.983 19.2004 130.758 13.9447 125.898 12.8778C121.037 11.8109 117.086 15.0117 116.216 18.4101C115.347 21.8084 114.557 27.1036 117.441 31.5689C117.441 31.5689 119.299 34.7301 123.29 35.0858C127.281 35.4414 130.877 32.4382 131.983 28.1705L133.366 30.6995C133.366 30.6995 130.205 36.2713 121.867 35.3624C113.529 34.4535 111.475 25.602 112.66 21.2552C113.846 16.9084 118.983 9.51896 128.862 13.1939C128.862 13.1939 131.154 14.1818 133.366 16.9875L131.983 19.2004Z" fill="#ffff"/>
</svg>
